<?xml version="1.0" encoding="utf-8"?>
<!-- Generator: Adobe Illustrator 27.3.1, SVG Export Plug-In . SVG Version: 6.00 Build 0)  -->
<svg version="1.1" id="Слой_1" xmlns="http://www.w3.org/2000/svg" xmlns:xlink="http://www.w3.org/1999/xlink" x="0px" y="0px"
	 viewBox="0 0 50 50" style="enable-background:new 0 0 50 50;" xml:space="preserve">
<style type="text/css">
	.st0{fill:#FFED00;}
</style>
<g>
	<g transform="scale(5.12,5.12)">
		<path class="st0" d="M4.9,0.8C4.9,0.8,4.8,0.8,4.9,0.8C4.7,0.8,4.7,0.9,4.7,1v1.2c0,0.1,0,0.1,0.1,0.2c0.1,0,0.1,0,0.2,0
			c0.1,0,0.1-0.1,0.1-0.2V1c0-0.1,0-0.1-0.1-0.1C5,0.8,4.9,0.8,4.9,0.8z M2.1,1.9C2,1.9,1.9,2,1.9,2.1c0,0.1,0,0.1,0.1,0.2l0.8,0.8
			c0,0.1,0.1,0.1,0.2,0.1c0.1,0,0.1-0.1,0.1-0.1c0-0.1,0-0.1-0.1-0.2L2.3,2C2.2,1.9,2.2,1.9,2.1,1.9C2.1,1.9,2.1,1.9,2.1,1.9z
			 M7.6,1.9c0,0-0.1,0-0.1,0.1L6.7,2.8C6.6,2.9,6.6,2.9,6.6,3c0,0.1,0.1,0.1,0.1,0.1c0.1,0,0.1,0,0.2-0.1l0.8-0.8
			c0.1-0.1,0.1-0.1,0-0.2C7.8,2,7.7,1.9,7.6,1.9z M4.9,2.9c-1.1,0-2,0.9-2,2c0,1.1,0.9,2,2,2c1.1,0,2-0.9,2-2C6.8,3.8,6,2.9,4.9,2.9
			z M0.9,4.7c-0.1,0-0.2,0.1-0.2,0.2C0.8,5,0.9,5.1,1,5.1h1.2c0.1,0,0.1,0,0.2-0.1c0-0.1,0-0.1,0-0.2c0-0.1-0.1-0.1-0.2-0.1L0.9,4.7
			C1,4.7,1,4.7,0.9,4.7C1,4.7,0.9,4.7,0.9,4.7C0.9,4.7,0.9,4.7,0.9,4.7L0.9,4.7z M7.6,4.7c-0.1,0-0.2,0.1-0.2,0.2
			c0,0.1,0.1,0.2,0.2,0.2h1.2C8.9,5.1,8.9,5,9,5c0-0.1,0-0.1,0-0.2c0-0.1-0.1-0.1-0.2-0.1L7.6,4.7C7.6,4.7,7.6,4.7,7.6,4.7
			C7.6,4.7,7.6,4.7,7.6,4.7C7.6,4.7,7.6,4.7,7.6,4.7L7.6,4.7z M2.9,6.6c0,0-0.1,0-0.1,0.1L2,7.5c-0.1,0-0.1,0.1-0.1,0.2
			c0,0.1,0.1,0.1,0.1,0.1c0.1,0,0.1,0,0.2-0.1L3.1,7c0.1-0.1,0.1-0.1,0-0.2C3.1,6.7,3,6.6,2.9,6.6C2.9,6.6,2.9,6.6,2.9,6.6z
			 M6.8,6.6c-0.1,0-0.1,0.1-0.2,0.1c0,0.1,0,0.1,0.1,0.2l0.8,0.8c0,0.1,0.1,0.1,0.2,0.1c0.1,0,0.1-0.1,0.1-0.1c0-0.1,0-0.1-0.1-0.2
			L7,6.7C6.9,6.6,6.9,6.6,6.8,6.6C6.8,6.6,6.8,6.6,6.8,6.6C6.8,6.6,6.8,6.6,6.8,6.6z M4.9,7.4C4.9,7.4,4.8,7.4,4.9,7.4
			c-0.1,0-0.2,0.1-0.2,0.2v1.2c0,0.1,0,0.1,0.1,0.2C4.8,9,4.9,9,5,9c0.1,0,0.1-0.1,0.1-0.2V7.6c0-0.1,0-0.1-0.1-0.1
			C5,7.4,4.9,7.4,4.9,7.4z"/>
	</g>
</g>
</svg>
