<?xml version="1.0" encoding="utf-8"?>
<!-- Generator: Adobe Illustrator 27.3.1, SVG Export Plug-In . SVG Version: 6.00 Build 0)  -->
<svg version="1.1" id="Layer_1" xmlns="http://www.w3.org/2000/svg" xmlns:xlink="http://www.w3.org/1999/xlink" x="0px" y="0px"
	 viewBox="0 0 50 50" style="enable-background:new 0 0 50 50;" xml:space="preserve">
<style type="text/css">
	.st0{fill:#1D1D1B;stroke:#FFED00;stroke-miterlimit:10;}
	.st1{fill:none;stroke:#FFED00;stroke-width:2;stroke-linecap:round;stroke-linejoin:round;stroke-miterlimit:10;}
</style>
<path class="st0" d="M43.4,7.2C42.1,7.8,5.6,23.4,5.6,23.4S3.9,24,4,25.1s1.6,1.7,1.6,1.7L15,30c0,0,2.8,9.4,3.4,11.2s1,1.8,1,1.8
	c0.5,0.2,1-0.1,1-0.1l6.1-5.6l9.4,7.4c2.6,1.1,3.5-1.2,3.5-1.2l6.5-33.9C46.4,6.9,44.7,6.7,43.4,7.2z"/>
<polyline class="st1" points="15,30 39,14 22,34 "/>
<polyline class="st1" points="20,43 22,34 26,37 "/>
</svg>
