<?xml version="1.0" encoding="utf-8"?>
<!-- Generator: Adobe Illustrator 27.3.1, SVG Export Plug-In . SVG Version: 6.00 Build 0)  -->
<svg version="1.1" id="Слой_1" xmlns="http://www.w3.org/2000/svg" xmlns:xlink="http://www.w3.org/1999/xlink" x="0px" y="0px"
	 viewBox="0 0 32 32" style="enable-background:new 0 0 32 32;" xml:space="preserve">
<style type="text/css">
	.st0{fill:#1D1D1B;stroke:#FFEC00;stroke-width:2;stroke-miterlimit:20;}
</style>
<path class="st0" d="M15.5,25h2.4c0,0,0.5-0.1,0.8-0.4s0.2-0.8,0.2-0.8s0.1-2.4,1.2-2.8s2.3,2.3,3.8,3.4c1.1,0.8,2,0.6,2,0.6
	l3.4-0.1c0,0,2.1-0.2,1.2-1.9c-0.1-0.1-0.5-1.4-2.9-3.7c-2.5-2.4-2.2-0.9,0.9-5.1c1.8-2.6,2.6-4.2,2.4-4.8C30.7,9,29.3,9,29.3,9h-4
	c0,0-0.3,0-0.6,0.1c-0.2,0.2-0.4,0.5-0.4,0.5s-0.7,1-1.7,2.7c-2,3.6-2.8,2.6-3.1,2.4C18.8,14.2,19,13,19,11.5c0-3.5,0.5-3.9-1-4.3
	C17.5,7.1,16.6,7,15.4,7c-1.6,0-2.7,0.1-3.5,0.5c-0.5,0.3-0.9,0.8-0.7,0.9c0.3,0,1,0.2,1.3,0.7C13,9.8,13,10.2,13,10.2
	s0.3,4.1-0.6,4.6c-0.6,0.3-1.7,0.7-3.5-2.5C8,10.6,7.3,9.8,7.3,9.8S7.2,9.4,6.9,9.3C6.6,9,6.2,9,6.2,9H1.9c0,0-0.6,0-0.9,0.3
	c-0.2,0.3,0,0.8,0,0.8s3.4,7.1,7.2,11.2C11.7,25.1,15.5,25,15.5,25z"/>
</svg>
